
 #######                         #######                      
 #       ###### ###### #         #       #####  ###### ###### 
 #       #      #      #         #       #    # #      #      
 #####   #####  #####  #         #####   #    # #####  #####  
 #       #      #      #         #       #####  #      #      
 #       #      #      #         #       #   #  #      #      
 #       ###### ###### ######    #       #    # ###### ###### 


Genre:Biography | Drama | Sport
Language:English
IMDb: 
http://www.imdb.com/title/tt0964517/
Source:DVD
Subtitles:Romana


Format : MPEG-4
Format profile : Base Media
Codec ID : isom
File size : 1.32 GiB
Duration : 1h 55mn
Overall bit rate : 1 631 Kbps


Video
Format profile : High@L4.1
Format settings, CABAC : Yes
Format settings, ReFrames : 3 frames
Codec ID : avc1
Codec ID/Info : Advanced Video Coding
Duration : 1h 55mn
Bit rate mode : Variable
Bit rate : 1 206 Kbps
Maximum bit rate : 4 917 Kbps
Width : 720 pixels
Height : 304 pixels
Display aspect ratio : 2.35:1
Frame rate mode : Constant
Frame rate : 23.976 fps
Color space : YUV
Chroma subsampling : 4:2:0
Bit depth : 8 bits
Scan type : Progressive
Bits/(Pixel*Frame) : 0.230
Stream size : 991 MiB (73%)
Writing library : x264


Audio
ID : 2
Format : AAC
Format/Info : Advanced Audio Codec
Format version : Version 4
Format profile : LC
Format settings, SBR : No
Codec ID : 40
Duration : 1h 55mn
Bit rate mode : Variable
Bit rate : 428 Kbps
Maximum bit rate : 582 Kbps
Channel(s) : 6 channels
Channel positions : Front: L C R, Side: L R, LFE
Sampling rate : 48.0 KHz
Stream size : 354 MiB (26%)


Plot:
A look at the early years of boxer "Irish" Micky Ward and his brother who helped train him before going pro in the mid 1980s






================================== 
http://thepiratebay.org/user/hiest
==================================






Screen Shots:
 
http://www.postimg.com/30000/29233.jpg
 
http://www.postimg.com/30000/29234.jpg
 
http://www.postimg.com/30000/29235.jpg
 
http://www.postimg.com/30000/29237.jpg
 
http://www.postimg.com/30000/29238.jpg
 
http://www.postimg.com/30000/29236.jpg


 #######                         #######                      
 #       ###### ###### #         #       #####  ###### ###### 
 #       #      #      #         #       #    # #      #      
 #####   #####  #####  #         #####   #    # #####  #####  
 #       #      #      #         #       #####  #      #      
 #       #      #      #         #       #   #  #      #      
 #       ###### ###### ######    #       #    # ###### ###### 
